<?xml version="1.0" encoding="UTF-8"?><svg xmlns="http://www.w3.org/2000/svg" xmlns:xlink="http://www.w3.org/1999/xlink" height="450.0" preserveAspectRatio="xMidYMid meet" version="1.0" viewBox="0.0 0.0 450.0 450.0" width="450.0" zoomAndPan="magnify"><g><g id="change1_1"><path d="M 450 225 C 450 349.265625 349.265625 450 225 450 C 100.734375 450 0 349.265625 0 225 C 0 100.734375 100.734375 0 225 0 C 349.265625 0 450 100.734375 450 225" fill="#ef4136"/></g><g id="change2_1"><path d="M 140 322.742188 C 136.738281 322.742188 133.476562 321.5 130.988281 319.011719 C 126.011719 314.035156 126.011719 305.964844 130.988281 300.988281 L 300.988281 130.988281 C 305.964844 126.011719 314.035156 126.011719 319.011719 130.988281 C 323.988281 135.964844 323.988281 144.035156 319.011719 149.011719 L 149.011719 319.011719 C 146.523438 321.5 143.261719 322.742188 140 322.742188" fill="#b52e28"/></g><g id="change2_2"><path d="M 310 322.742188 C 306.738281 322.742188 303.476562 321.5 300.988281 319.011719 L 130.988281 149.011719 C 126.011719 144.035156 126.011719 135.964844 130.988281 130.988281 C 135.964844 126.011719 144.035156 126.011719 149.011719 130.988281 L 319.011719 300.988281 C 323.988281 305.964844 323.988281 314.035156 319.011719 319.011719 C 316.523438 321.5 313.261719 322.742188 310 322.742188" fill="#b52e28"/></g></g></svg>